<svg width="258pt" height="28pt" viewBox="-1 -1 260 30" xmlns="http://www.w3.org/2000/svg"><g id="fontsvg1678248536168" stroke-linecap="round" fill-rule="evenodd" stroke="#0a0a0a" stroke-width="0.5mm" fill="#4274dd"><path d="M 253.834 4.004 L 253.834 4.492 Q 253.834 5.909 252.175 6.394 A 5.456 5.456 0 0 1 251.49 6.543 Q 247.706 5.664 247.096 5.664 Q 244.654 5.908 244.654 7.52 L 244.654 7.813 Q 244.654 9.113 248.261 10.27 A 28.626 28.626 0 0 0 249.537 10.645 A 12.402 12.402 0 0 1 252.1 11.868 Q 253.695 12.892 254.518 14.307 A 6.769 6.769 0 0 1 255.396 17.773 A 7.31 7.31 0 0 1 254.581 21.278 Q 253.728 22.871 251.983 23.963 A 11.616 11.616 0 0 1 249.83 25 A 10.741 10.741 0 0 1 247.541 25.504 A 13.593 13.593 0 0 1 246.021 25.586 A 13.519 13.519 0 0 1 243.34 25.339 Q 240.224 24.707 238.697 22.461 L 238.599 21.875 L 238.599 21.777 Q 238.599 19.556 241.138 19.336 L 241.236 19.336 A 1.19 1.19 0 0 1 241.399 19.354 Q 242.149 19.474 245.713 20.38 A 428.731 428.731 0 0 1 246.217 20.508 L 246.998 20.508 A 5.201 5.201 0 0 0 248.017 20.29 Q 249.567 19.774 249.632 18.294 A 2.99 2.99 0 0 0 249.635 18.164 L 249.635 17.969 Q 249.635 15.785 244.648 14.616 A 25.633 25.633 0 0 0 244.361 14.551 Q 241.575 13.568 240.208 12.04 A 5.005 5.005 0 0 1 238.892 8.594 L 238.892 8.008 Q 238.892 4.091 242.273 2.085 A 11.88 11.88 0 0 1 244.849 0.977 A 20.287 20.287 0 0 1 245.832 0.81 Q 246.315 0.741 246.735 0.71 A 8.826 8.826 0 0 1 247.388 0.684 Q 253.201 1.146 253.772 3.475 A 2.216 2.216 0 0 1 253.834 4.004 Z M 9.962 16.797 L 10.157 16.895 L 10.255 16.895 Q 10.621 16.895 12.891 9.375 A 189.255 189.255 0 0 1 13.445 7.694 Q 15.287 2.188 15.821 1.953 Q 15.821 1.591 16.95 1.295 A 10.278 10.278 0 0 1 17.481 1.172 A 5.201 5.201 0 0 1 18.501 1.39 Q 20.051 1.906 20.115 3.385 A 2.99 2.99 0 0 1 20.118 3.516 L 20.118 3.711 A 3.746 3.746 0 0 1 20.005 4.495 Q 19.55 6.488 17.268 11.83 A 199.972 199.972 0 0 1 16.895 12.695 Q 12.672 24.146 11.817 24.902 A 3.143 3.143 0 0 1 9.962 25.488 A 2.197 2.197 0 0 1 8.397 24.787 Q 7.614 24.019 6.994 22.408 A 17.454 17.454 0 0 1 6.446 20.703 Q 0.566 6.248 0.05 4.432 A 1.094 1.094 0 0 1 0.001 4.199 L 0.001 3.809 Q 0.001 1.66 2.735 1.172 Q 4.835 1.172 5.762 5.371 A 5.905 5.905 0 0 1 5.892 5.683 Q 6.544 7.333 9.962 16.797 Z M 129.981 14.453 L 129.981 21.973 A 6.626 6.626 0 0 1 129.878 23.192 Q 129.511 25.145 127.833 25.488 A 1.663 1.663 0 0 0 127.653 25.497 Q 127.464 25.518 127.346 25.585 A 0.502 0.502 0 0 0 127.345 25.586 A 2.684 2.684 0 0 1 126.1 25.316 Q 124.987 24.742 124.764 22.95 A 7.926 7.926 0 0 1 124.708 21.973 L 124.708 16.797 A 20.453 20.453 0 0 0 124.667 15.445 Q 124.522 13.277 123.873 12.499 A 1.283 1.283 0 0 0 123.536 12.207 A 4.122 4.122 0 0 0 122.767 11.92 A 3.173 3.173 0 0 0 121.973 11.816 L 121.583 11.816 A 3.46 3.46 0 0 0 120.53 12.154 Q 119.239 12.837 119.239 14.648 A 0.047 0.047 0 0 0 119.203 14.685 Q 119.153 14.799 119.144 15.276 A 12.405 12.405 0 0 0 119.141 15.527 L 119.141 21.973 A 6.626 6.626 0 0 1 119.039 23.192 Q 118.671 25.145 116.993 25.488 A 1.663 1.663 0 0 0 116.813 25.497 Q 116.624 25.518 116.505 25.586 Q 114.28 25.586 113.932 22.945 A 8.222 8.222 0 0 1 113.868 21.875 L 113.868 11.035 A 7.009 7.009 0 0 1 113.98 9.722 Q 114.392 7.574 116.322 7.432 A 3.828 3.828 0 0 1 116.602 7.422 A 2.175 2.175 0 0 1 117.987 7.933 Q 118.316 8.195 118.617 8.593 A 5.6 5.6 0 0 1 118.946 9.082 L 119.141 9.082 A 3.875 3.875 0 0 1 120.9 7.778 Q 121.578 7.512 122.434 7.402 A 10.194 10.194 0 0 1 123.731 7.324 A 7.444 7.444 0 0 1 126.088 7.672 Q 128.758 8.56 129.688 11.719 A 12.79 12.79 0 0 1 129.981 14.453 Z M 39.649 17.676 L 30.47 17.676 A 0.179 0.179 0 0 0 30.367 17.704 Q 30.274 17.767 30.274 17.969 Q 30.274 19.553 32.234 20.326 A 7.491 7.491 0 0 0 33.106 20.606 A 0.179 0.179 0 0 0 33.174 20.642 Q 33.342 20.701 33.851 20.703 A 9.259 9.259 0 0 0 33.887 20.703 L 34.376 20.703 A 4.04 4.04 0 0 0 35.151 20.612 Q 36.636 20.314 39.552 19.043 L 39.942 19.043 Q 41.285 19.043 41.798 20.996 L 41.798 21.094 A 2.713 2.713 0 0 1 40.914 23.048 Q 39.958 24.004 37.966 24.743 A 20.371 20.371 0 0 1 36.231 25.293 A 20.029 20.029 0 0 1 34.959 25.439 A 14.588 14.588 0 0 1 33.79 25.488 Q 27.637 25.488 25.196 19.043 A 15.916 15.916 0 0 1 24.929 17.677 Q 24.829 16.998 24.81 16.39 A 8.939 8.939 0 0 1 24.805 16.113 A 9.834 9.834 0 0 1 25.583 12.115 Q 26.618 9.762 29.032 8.228 A 13.224 13.224 0 0 1 30.958 7.227 A 18.411 18.411 0 0 1 33.595 6.836 A 8.363 8.363 0 0 1 37.63 7.791 Q 39.327 8.707 40.569 10.501 A 12.282 12.282 0 0 1 41.407 11.914 A 9.438 9.438 0 0 1 42.108 14.37 A 8.426 8.426 0 0 1 42.188 15.527 A 2.581 2.581 0 0 1 42.039 16.442 Q 41.611 17.577 39.949 17.668 A 5.476 5.476 0 0 1 39.649 17.676 Z M 77.735 17.676 L 68.555 17.676 A 0.179 0.179 0 0 0 68.453 17.704 Q 68.36 17.767 68.36 17.969 Q 68.36 19.553 70.32 20.326 A 7.491 7.491 0 0 0 71.192 20.606 A 0.179 0.179 0 0 0 71.259 20.642 Q 71.428 20.701 71.937 20.703 A 9.259 9.259 0 0 0 71.973 20.703 L 72.462 20.703 A 4.04 4.04 0 0 0 73.237 20.612 Q 74.722 20.314 77.637 19.043 L 78.028 19.043 Q 79.371 19.043 79.884 20.996 L 79.884 21.094 A 2.713 2.713 0 0 1 79 23.048 Q 78.044 24.004 76.052 24.743 A 20.371 20.371 0 0 1 74.317 25.293 A 20.029 20.029 0 0 1 73.045 25.439 A 14.588 14.588 0 0 1 71.876 25.488 Q 65.723 25.488 63.282 19.043 A 15.916 15.916 0 0 1 63.015 17.677 Q 62.915 16.998 62.896 16.39 A 8.939 8.939 0 0 1 62.891 16.113 A 9.834 9.834 0 0 1 63.669 12.115 Q 64.704 9.762 67.117 8.228 A 13.224 13.224 0 0 1 69.044 7.227 A 18.411 18.411 0 0 1 71.68 6.836 A 8.363 8.363 0 0 1 75.715 7.791 Q 77.413 8.707 78.655 10.501 A 12.282 12.282 0 0 1 79.493 11.914 A 9.438 9.438 0 0 1 80.194 14.37 A 8.426 8.426 0 0 1 80.274 15.527 A 2.581 2.581 0 0 1 80.125 16.442 Q 79.697 17.577 78.035 17.668 A 5.476 5.476 0 0 1 77.735 17.676 Z M 234.449 2.051 L 234.547 2.051 A 1.72 1.72 0 0 1 235.483 2.861 Q 236.202 4.057 236.292 6.881 A 26.391 26.391 0 0 1 236.304 7.715 L 236.304 16.797 A 33.912 33.912 0 0 1 236.196 19.63 Q 235.823 24.057 234.167 25.458 A 2.843 2.843 0 0 1 233.863 25.684 A 6.688 6.688 0 0 1 229.735 27.417 A 8.784 8.784 0 0 1 229.078 27.441 L 228.297 27.441 A 8.944 8.944 0 0 1 225.854 27.125 A 6.565 6.565 0 0 1 222.633 25.098 L 222.633 25 L 222.73 25 Q 224.635 26.172 227.711 26.172 Q 232.263 26.172 234.055 22.386 A 10.425 10.425 0 0 0 234.742 20.41 Q 234.937 19.165 234.937 18.066 L 234.937 4.59 A 6.727 6.727 0 0 0 234.668 2.668 A 6.147 6.147 0 0 0 234.449 2.051 Z M 152.076 8.203 L 152.174 8.203 A 2.828 2.828 0 0 1 153.379 9.575 Q 153.827 10.582 153.834 12.159 A 11.316 11.316 0 0 1 153.834 12.207 L 153.834 22.949 A 7.562 7.562 0 0 1 153.694 24.465 Q 153.239 26.685 151.295 27.246 L 150.416 27.246 A 3.157 3.157 0 0 1 149.378 27.085 Q 148.487 26.776 147.974 25.879 L 147.877 25.879 A 5.484 5.484 0 0 1 144.463 27.41 A 7.383 7.383 0 0 1 143.775 27.441 L 143.678 27.441 A 7.762 7.762 0 0 1 140.243 26.692 A 7.81 7.81 0 0 1 137.721 24.707 L 137.818 24.707 Q 139.942 26.172 142.506 26.172 Q 144.874 26.172 146.607 24.609 A 4.106 4.106 0 0 0 147.454 25.416 A 3.06 3.06 0 0 0 149.244 25.977 Q 152.003 25.977 152.469 22.605 A 11.076 11.076 0 0 0 152.564 21.094 L 152.564 11.426 Q 152.564 9.884 152.244 8.727 A 6.47 6.47 0 0 0 152.076 8.203 Z M 203.931 8.203 L 204.029 8.203 A 2.828 2.828 0 0 1 205.234 9.575 Q 205.682 10.582 205.689 12.159 A 11.316 11.316 0 0 1 205.689 12.207 L 205.689 22.949 A 7.562 7.562 0 0 1 205.55 24.465 Q 205.094 26.685 203.15 27.246 L 202.271 27.246 A 3.157 3.157 0 0 1 201.234 27.085 Q 200.343 26.776 199.83 25.879 L 199.732 25.879 A 5.484 5.484 0 0 1 196.318 27.41 A 7.383 7.383 0 0 1 195.631 27.441 L 195.533 27.441 A 7.762 7.762 0 0 1 192.098 26.692 A 7.81 7.81 0 0 1 189.576 24.707 L 189.674 24.707 Q 191.798 26.172 194.361 26.172 Q 196.729 26.172 198.463 24.609 A 4.106 4.106 0 0 0 199.309 25.416 A 3.06 3.06 0 0 0 201.099 25.977 Q 203.859 25.977 204.325 22.605 A 11.076 11.076 0 0 0 204.42 21.094 L 204.42 11.426 Q 204.42 9.884 204.1 8.727 A 6.47 6.47 0 0 0 203.931 8.203 Z M 231.519 1.074 L 231.91 1.074 Q 234.241 1.074 234.346 4.635 A 11.673 11.673 0 0 1 234.351 4.981 L 234.351 17.481 A 13.797 13.797 0 0 1 234.046 20.527 Q 233.081 24.772 229.068 25.455 A 9.842 9.842 0 0 1 227.418 25.586 A 10.08 10.08 0 0 1 225.228 25.366 Q 223.903 25.07 222.955 24.38 A 5.13 5.13 0 0 1 221.363 22.461 A 8.094 8.094 0 0 1 221.312 22.144 Q 221.266 21.82 221.265 21.586 A 2.495 2.495 0 0 1 221.265 21.582 Q 221.265 19.584 223.512 19.185 A 5.736 5.736 0 0 1 223.804 19.141 Q 224.073 19.141 227.027 20.313 L 227.32 20.313 A 1.172 1.172 0 0 0 228.374 19.645 Q 228.883 18.76 228.883 16.699 L 228.883 5.469 A 10.952 10.952 0 0 1 228.975 3.975 Q 229.205 2.315 230.005 1.605 A 2.196 2.196 0 0 1 231.519 1.074 Z M 146.705 8.887 L 146.998 8.887 A 2.768 2.768 0 0 1 147.514 7.994 Q 148.194 7.227 149.439 7.227 A 2.35 2.35 0 0 1 150.647 7.52 Q 151.594 8.075 151.814 9.676 A 7.858 7.858 0 0 1 151.881 10.742 L 151.881 22.07 Q 151.881 25.391 149.146 25.391 A 1.923 1.923 0 0 1 147.991 24.986 Q 147.362 24.525 146.803 23.535 L 146.705 23.535 A 5.656 5.656 0 0 1 144.922 25.007 A 5.417 5.417 0 0 1 142.408 25.586 Q 137.696 25.586 135.084 20.02 A 16.848 16.848 0 0 1 134.644 17.993 A 12.677 12.677 0 0 1 134.498 16.113 A 9.819 9.819 0 0 1 135.239 12.218 Q 136.224 9.914 138.517 8.36 A 12.46 12.46 0 0 1 139.771 7.617 Q 140.757 7.134 142.175 7.049 A 10.443 10.443 0 0 1 142.799 7.031 A 5.09 5.09 0 0 1 144.83 7.426 A 4.852 4.852 0 0 1 146.705 8.887 Z M 198.56 8.887 L 198.853 8.887 A 2.768 2.768 0 0 1 199.369 7.994 Q 200.05 7.227 201.295 7.227 A 2.35 2.35 0 0 1 202.502 7.52 Q 203.449 8.075 203.669 9.676 A 7.858 7.858 0 0 1 203.736 10.742 L 203.736 22.07 Q 203.736 25.391 201.002 25.391 A 1.923 1.923 0 0 1 199.847 24.986 Q 199.218 24.525 198.658 23.535 L 198.56 23.535 A 5.656 5.656 0 0 1 196.777 25.007 A 5.417 5.417 0 0 1 194.263 25.586 Q 189.552 25.586 186.939 20.02 A 16.848 16.848 0 0 1 186.5 17.993 A 12.677 12.677 0 0 1 186.353 16.113 A 9.819 9.819 0 0 1 187.095 12.218 Q 188.08 9.914 190.373 8.36 A 12.46 12.46 0 0 1 191.627 7.617 Q 192.613 7.134 194.03 7.049 A 10.443 10.443 0 0 1 194.654 7.031 A 5.09 5.09 0 0 1 196.685 7.426 A 4.852 4.852 0 0 1 198.56 8.887 Z M 51.612 1.856 L 52.1 1.758 A 2.266 2.266 0 0 1 54.268 3.121 Q 54.774 4.136 54.828 5.907 A 14.303 14.303 0 0 1 54.835 6.348 L 54.835 7.813 A 7.539 7.539 0 0 1 56.076 7.906 Q 58.067 8.24 58.448 9.766 A 0.843 0.843 0 0 0 58.477 9.991 A 0.716 0.716 0 0 0 58.546 10.156 Q 58.546 11.813 56.627 12.339 A 6.212 6.212 0 0 1 55.811 12.5 A 7.641 7.641 0 0 0 55.53 12.505 Q 54.952 12.526 54.855 12.644 A 0.079 0.079 0 0 0 54.835 12.695 L 54.835 20.117 A 21.749 21.749 0 0 1 54.777 21.774 Q 54.577 24.376 53.684 25.106 A 1.231 1.231 0 0 1 52.882 25.391 A 0.056 0.056 0 0 1 52.85 25.433 Q 52.735 25.509 52.198 25.586 A 2.684 2.684 0 0 1 50.953 25.316 Q 49.841 24.742 49.617 22.95 A 7.926 7.926 0 0 1 49.561 21.973 L 49.561 13.574 L 49.659 12.598 Q 47.517 12.371 46.799 11.496 A 1.598 1.598 0 0 1 46.436 10.449 L 46.436 9.961 Q 46.436 8.349 49.13 7.866 A 10.226 10.226 0 0 1 49.464 7.813 L 49.561 7.324 L 49.561 5.078 A 5.468 5.468 0 0 1 49.673 3.924 Q 49.814 3.276 50.131 2.82 A 2.408 2.408 0 0 1 51.612 1.856 Z M 20.509 2.246 L 20.606 2.246 A 3.001 3.001 0 0 1 22.024 4.425 A 4.336 4.336 0 0 1 22.071 5.078 Q 22.071 6.421 18.555 14.844 A 631.522 631.522 0 0 1 17.633 17.255 Q 14.573 25.201 13.868 26.27 A 3.938 3.938 0 0 1 12.78 27.086 A 3.432 3.432 0 0 1 11.231 27.441 A 2.995 2.995 0 0 1 10.094 27.235 Q 9.361 26.937 8.884 26.209 A 3.67 3.67 0 0 1 8.692 25.879 L 8.79 25.879 Q 9.066 26.017 9.488 26.057 A 3.947 3.947 0 0 0 9.864 26.074 L 10.255 26.074 A 2.883 2.883 0 0 0 12.436 25.041 Q 13.35 24.043 13.994 22.08 A 17.406 17.406 0 0 0 14.259 21.191 A 1231.7 1231.7 0 0 0 15.769 17.461 Q 20.502 5.717 20.696 4.391 A 0.673 0.673 0 0 0 20.704 4.297 L 20.704 3.223 A 0.864 0.864 0 0 0 20.696 3.119 Q 20.672 2.93 20.578 2.53 A 21.639 21.639 0 0 0 20.509 2.246 Z M 247.779 27.441 L 246.998 27.441 A 12.878 12.878 0 0 1 244.091 27.133 Q 241.951 26.637 240.437 25.346 A 7.935 7.935 0 0 1 239.771 24.707 L 239.771 24.609 L 239.869 24.609 Q 242.07 25.964 245.373 26.144 A 19.08 19.08 0 0 0 246.412 26.172 Q 253.614 26.172 255.787 19.824 A 9.937 9.937 0 0 0 255.982 17.871 L 255.982 17.285 A 6.84 6.84 0 0 0 255.569 14.989 A 9.441 9.441 0 0 0 254.81 13.379 A 7.825 7.825 0 0 1 256.454 15.309 A 6.456 6.456 0 0 1 257.349 18.652 A 9.088 9.088 0 0 1 256.624 22.377 Q 255.614 24.65 253.199 26.038 A 13.072 13.072 0 0 1 250.611 27.148 Q 249.192 27.411 248.046 27.438 A 11.052 11.052 0 0 1 247.779 27.441 Z M 89.796 15.82 L 89.796 21.973 A 6.626 6.626 0 0 1 89.693 23.192 Q 89.326 25.145 87.647 25.488 A 1.663 1.663 0 0 0 87.467 25.497 Q 87.278 25.518 87.159 25.586 Q 84.935 25.586 84.587 22.945 A 8.222 8.222 0 0 1 84.522 21.875 L 84.522 11.035 A 7.009 7.009 0 0 1 84.634 9.722 Q 85.046 7.574 86.976 7.432 A 3.828 3.828 0 0 1 87.257 7.422 A 2.175 2.175 0 0 1 88.641 7.933 Q 88.97 8.195 89.271 8.593 A 5.6 5.6 0 0 1 89.6 9.082 L 89.796 9.082 A 5.233 5.233 0 0 1 90.915 8.028 A 3.99 3.99 0 0 1 93.214 7.324 Q 94.952 7.324 95.695 9.222 A 5.35 5.35 0 0 1 95.753 9.375 A 3.855 3.855 0 0 1 95.812 9.654 Q 95.837 9.799 95.846 9.928 A 1.957 1.957 0 0 1 95.85 10.059 A 1.414 1.414 0 0 1 95.464 10.963 Q 94.655 11.922 92.152 12.932 A 29.983 29.983 0 0 1 90.968 13.379 A 2.02 2.02 0 0 0 89.967 14.597 Q 89.844 14.973 89.809 15.44 A 5.138 5.138 0 0 0 89.796 15.82 Z M 162.281 15.82 L 162.281 21.973 A 6.626 6.626 0 0 1 162.178 23.192 Q 161.811 25.145 160.133 25.488 A 1.663 1.663 0 0 0 159.953 25.497 Q 159.763 25.518 159.644 25.586 Q 157.42 25.586 157.072 22.945 A 8.222 8.222 0 0 1 157.008 21.875 L 157.008 11.035 A 7.009 7.009 0 0 1 157.119 9.722 Q 157.531 7.574 159.461 7.432 A 3.828 3.828 0 0 1 159.742 7.422 A 2.175 2.175 0 0 1 161.126 7.933 Q 161.455 8.195 161.757 8.593 A 5.6 5.6 0 0 1 162.086 9.082 L 162.281 9.082 A 5.233 5.233 0 0 1 163.4 8.028 A 3.99 3.99 0 0 1 165.699 7.324 Q 167.437 7.324 168.181 9.222 A 5.35 5.35 0 0 1 168.238 9.375 A 3.855 3.855 0 0 1 168.298 9.654 Q 168.323 9.799 168.331 9.928 A 1.957 1.957 0 0 1 168.336 10.059 A 1.414 1.414 0 0 1 167.95 10.963 Q 167.141 11.922 164.638 12.932 A 29.983 29.983 0 0 1 163.453 13.379 A 2.02 2.02 0 0 0 162.453 14.597 Q 162.329 14.973 162.295 15.44 A 5.138 5.138 0 0 0 162.281 15.82 Z M 96.143 8.496 L 96.241 8.496 Q 97.804 9.546 97.804 11.231 Q 97.804 13.495 92.762 15.094 A 26.375 26.375 0 0 1 92.628 15.137 Q 91.749 15.674 91.749 16.895 L 91.749 21.68 Q 91.749 26.093 90.124 27.075 A 1.892 1.892 0 0 1 89.991 27.148 A 7.641 7.641 0 0 1 89.47 27.303 Q 88.929 27.441 88.526 27.441 L 88.233 27.441 A 3.069 3.069 0 0 1 87.056 27.224 Q 86.359 26.937 85.865 26.274 A 3.617 3.617 0 0 1 85.792 26.172 L 85.792 25.977 A 30.796 30.796 0 0 0 86.216 26.053 Q 86.779 26.149 87.048 26.168 A 1.654 1.654 0 0 0 87.159 26.172 Q 90.382 26.172 90.382 22.07 L 90.382 16.797 A 14.605 14.605 0 0 1 90.405 15.938 Q 90.478 14.701 90.785 14.28 A 0.46 0.46 0 0 1 91.163 14.063 A 10.178 10.178 0 0 1 91.606 13.838 Q 92.561 13.377 94.679 12.5 A 6.811 6.811 0 0 0 95.427 11.941 Q 96.216 11.254 96.388 10.55 A 1.654 1.654 0 0 0 96.436 10.156 L 96.436 9.863 A 3.043 3.043 0 0 0 96.374 9.27 Q 96.301 8.904 96.143 8.496 Z M 168.629 8.496 L 168.726 8.496 Q 170.289 9.546 170.289 11.231 Q 170.289 13.495 165.248 15.094 A 26.375 26.375 0 0 1 165.113 15.137 Q 164.234 15.674 164.234 16.895 L 164.234 21.68 Q 164.234 26.093 162.609 27.075 A 1.892 1.892 0 0 1 162.476 27.148 A 7.641 7.641 0 0 1 161.956 27.303 Q 161.414 27.441 161.012 27.441 L 160.719 27.441 A 3.069 3.069 0 0 1 159.542 27.224 Q 158.845 26.937 158.351 26.274 A 3.617 3.617 0 0 1 158.277 26.172 L 158.277 25.977 A 30.796 30.796 0 0 0 158.701 26.053 Q 159.264 26.149 159.534 26.168 A 1.654 1.654 0 0 0 159.644 26.172 Q 162.867 26.172 162.867 22.07 L 162.867 16.797 A 14.605 14.605 0 0 1 162.89 15.938 Q 162.963 14.701 163.27 14.28 A 0.46 0.46 0 0 1 163.648 14.063 A 10.178 10.178 0 0 1 164.092 13.838 Q 165.047 13.377 167.164 12.5 A 6.811 6.811 0 0 0 167.912 11.941 Q 168.702 11.254 168.874 10.55 A 1.654 1.654 0 0 0 168.922 10.156 L 168.922 9.863 A 3.043 3.043 0 0 0 168.859 9.27 Q 168.787 8.904 168.629 8.496 Z M 60.401 11.133 L 60.401 11.816 Q 60.401 13.579 58.202 14.147 A 8.113 8.113 0 0 1 56.983 14.356 L 56.69 14.356 L 56.69 23.242 A 7.228 7.228 0 0 1 56.56 24.667 Q 56.4 25.464 56.041 26.052 A 3.143 3.143 0 0 1 54.737 27.246 Q 54.245 27.387 53.854 27.426 A 2.887 2.887 0 0 1 53.565 27.441 L 52.979 27.441 Q 52.005 27.441 51.137 26.527 A 5.11 5.11 0 0 1 50.831 26.172 L 50.831 25.977 A 30.796 30.796 0 0 0 51.255 26.053 Q 51.818 26.149 52.087 26.168 A 1.654 1.654 0 0 0 52.198 26.172 A 3.385 3.385 0 0 0 53.683 25.869 Q 55.421 25.031 55.421 21.875 L 55.421 13.281 Q 55.421 13.159 57.667 12.695 A 4.574 4.574 0 0 0 58.371 12.127 Q 58.736 11.761 58.926 11.359 A 2.103 2.103 0 0 0 59.132 10.449 L 59.132 9.961 Q 59.053 9.487 59.038 9.205 A 2.312 2.312 0 0 1 59.034 9.082 A 3.819 3.819 0 0 1 59.695 9.58 Q 60.069 9.937 60.245 10.352 A 1.977 1.977 0 0 1 60.401 11.133 Z M 107.081 8.398 L 107.179 8.398 A 3.132 3.132 0 0 1 108.436 9.944 Q 108.669 10.518 108.767 11.25 A 8.699 8.699 0 0 1 108.839 12.402 L 108.839 23.047 A 7.879 7.879 0 0 1 108.699 24.594 Q 108.53 25.436 108.156 26.045 A 3.151 3.151 0 0 1 106.3 27.441 L 105.128 27.441 Q 103.931 27.441 102.979 26.172 L 102.882 25.977 L 102.979 25.977 A 30.796 30.796 0 0 0 103.404 26.053 Q 103.966 26.149 104.236 26.168 A 1.654 1.654 0 0 0 104.346 26.172 Q 106.835 26.172 107.402 23.354 A 7.384 7.384 0 0 0 107.471 22.949 Q 107.569 21.484 107.569 20.508 L 107.569 12.695 Q 107.569 9.766 107.081 8.398 Z M 179.566 8.398 L 179.664 8.398 A 3.132 3.132 0 0 1 180.922 9.944 Q 181.154 10.518 181.252 11.25 A 8.699 8.699 0 0 1 181.324 12.402 L 181.324 23.047 A 7.879 7.879 0 0 1 181.185 24.594 Q 181.015 25.436 180.641 26.045 A 3.151 3.151 0 0 1 178.785 27.441 L 177.613 27.441 Q 176.417 27.441 175.465 26.172 L 175.367 25.977 L 175.465 25.977 A 30.796 30.796 0 0 0 175.889 26.053 Q 176.452 26.149 176.721 26.168 A 1.654 1.654 0 0 0 176.832 26.172 Q 179.32 26.172 179.887 23.354 A 7.384 7.384 0 0 0 179.957 22.949 Q 180.054 21.484 180.054 20.508 L 180.054 12.695 Q 180.054 9.766 179.566 8.398 Z M 129.395 9.473 L 129.395 9.375 L 129.493 9.375 Q 131.934 11.011 131.934 16.797 L 131.934 21.68 Q 131.934 26.093 130.309 27.075 A 1.892 1.892 0 0 1 130.177 27.148 A 7.641 7.641 0 0 1 129.656 27.303 Q 129.115 27.441 128.712 27.441 L 128.419 27.441 A 3.069 3.069 0 0 1 127.242 27.224 Q 126.545 26.937 126.051 26.274 A 3.617 3.617 0 0 1 125.977 26.172 L 125.977 25.977 A 30.796 30.796 0 0 0 126.402 26.053 Q 126.964 26.149 127.234 26.168 A 1.654 1.654 0 0 0 127.345 26.172 Q 130.567 26.172 130.567 22.07 L 130.567 13.867 A 9.369 9.369 0 0 0 130.327 11.695 A 7.163 7.163 0 0 0 129.395 9.473 Z M 41.016 9.961 L 41.016 9.863 L 41.114 9.863 A 9.553 9.553 0 0 1 43.253 12.786 A 8.768 8.768 0 0 1 44.044 16.504 L 44.044 17.09 A 4.852 4.852 0 0 1 43.876 17.974 Q 43.74 18.429 43.515 18.742 A 1.646 1.646 0 0 1 42.091 19.434 L 41.895 19.434 Q 40.992 18.457 39.747 18.457 L 39.552 18.457 Q 39.261 18.457 37.067 19.303 A 132.532 132.532 0 0 0 36.231 19.629 L 32.13 19.629 A 7.553 7.553 0 0 1 31.738 19.316 Q 31.178 18.835 31.078 18.5 A 0.487 0.487 0 0 1 31.055 18.359 L 31.251 18.262 L 39.942 18.262 Q 42.36 18.262 42.714 16.411 A 3.672 3.672 0 0 0 42.774 15.723 L 42.774 15.332 A 8.782 8.782 0 0 0 41.016 9.961 Z M 79.102 9.961 L 79.102 9.863 L 79.2 9.863 A 9.553 9.553 0 0 1 81.339 12.786 A 8.768 8.768 0 0 1 82.13 16.504 L 82.13 17.09 A 4.852 4.852 0 0 1 81.962 17.974 Q 81.826 18.429 81.601 18.742 A 1.646 1.646 0 0 1 80.177 19.434 L 79.981 19.434 Q 79.078 18.457 77.833 18.457 L 77.637 18.457 Q 77.347 18.457 75.152 19.303 A 132.532 132.532 0 0 0 74.317 19.629 L 70.216 19.629 A 7.553 7.553 0 0 1 69.824 19.316 Q 69.264 18.835 69.164 18.5 A 0.487 0.487 0 0 1 69.141 18.359 L 69.337 18.262 L 78.028 18.262 Q 80.446 18.262 80.8 16.411 A 3.672 3.672 0 0 0 80.86 15.723 L 80.86 15.332 A 8.782 8.782 0 0 0 79.102 9.961 Z M 104.151 7.422 L 104.444 7.422 Q 106.475 7.422 106.816 9.921 A 8.257 8.257 0 0 1 106.886 11.035 L 106.886 21.973 A 7.615 7.615 0 0 1 106.789 23.246 Q 106.39 25.586 104.346 25.586 Q 102.986 25.586 102.281 24.471 A 3.544 3.544 0 0 1 102.003 23.926 Q 101.685 23.27 101.626 21.09 A 39.728 39.728 0 0 1 101.612 20.02 L 101.612 12.891 A 22.888 22.888 0 0 1 101.667 11.234 Q 101.853 8.687 102.67 7.934 A 1.14 1.14 0 0 1 103.468 7.617 A 0.103 0.103 0 0 1 103.522 7.532 Q 103.661 7.439 104.151 7.422 Z M 176.637 7.422 L 176.929 7.422 Q 178.96 7.422 179.302 9.921 A 8.257 8.257 0 0 1 179.371 11.035 L 179.371 21.973 A 7.615 7.615 0 0 1 179.274 23.246 Q 178.875 25.586 176.832 25.586 Q 175.471 25.586 174.767 24.471 A 3.544 3.544 0 0 1 174.488 23.926 Q 174.17 23.27 174.111 21.09 A 39.728 39.728 0 0 1 174.097 20.02 L 174.097 12.891 A 22.888 22.888 0 0 1 174.152 11.234 Q 174.338 8.687 175.155 7.934 A 1.14 1.14 0 0 1 175.953 7.617 A 0.103 0.103 0 0 1 176.008 7.532 Q 176.147 7.439 176.637 7.422 Z M 123.731 13.672 L 123.731 13.77 L 122.852 13.77 Q 121.095 13.77 121.095 16.406 L 121.095 21.68 Q 121.095 26.093 119.469 27.075 A 1.892 1.892 0 0 1 119.337 27.148 A 7.641 7.641 0 0 1 118.816 27.303 Q 118.275 27.441 117.872 27.441 L 117.579 27.441 A 3.069 3.069 0 0 1 116.402 27.224 Q 115.705 26.937 115.211 26.274 A 3.617 3.617 0 0 1 115.137 26.172 L 115.137 25.977 A 30.796 30.796 0 0 0 115.562 26.053 Q 116.124 26.149 116.394 26.168 A 1.654 1.654 0 0 0 116.505 26.172 Q 119.727 26.172 119.727 22.07 L 119.727 16.504 A 23.907 23.907 0 0 1 119.77 15.435 Q 119.942 12.793 120.704 12.793 Q 120.777 12.549 121.973 12.402 A 4.805 4.805 0 0 1 122.61 12.54 Q 123.731 12.872 123.731 13.672 Z M 42.286 20.02 L 42.384 20.02 A 2.466 2.466 0 0 1 43.235 20.773 Q 43.653 21.382 43.653 22.266 L 43.653 22.656 A 2.731 2.731 0 0 1 42.909 24.474 Q 41.709 25.853 38.575 26.953 Q 37.183 27.344 35.255 27.441 A 10.27 10.27 0 0 1 31.685 26.843 A 9.019 9.019 0 0 1 28.028 24.316 L 28.126 24.316 A 9.349 9.349 0 0 0 33.365 26.067 A 11.54 11.54 0 0 0 33.79 26.074 L 34.376 26.074 Q 39.429 26.074 42.091 22.461 Q 42.337 21.824 42.376 21.291 A 2.697 2.697 0 0 0 42.384 21.094 A 2.01 2.01 0 0 0 42.38 20.989 Q 42.365 20.714 42.286 20.02 Z M 80.372 20.02 L 80.47 20.02 A 2.466 2.466 0 0 1 81.32 20.773 Q 81.739 21.382 81.739 22.266 L 81.739 22.656 A 2.731 2.731 0 0 1 80.995 24.474 Q 79.795 25.853 76.661 26.953 Q 75.269 27.344 73.341 27.441 A 10.27 10.27 0 0 1 69.77 26.843 A 9.019 9.019 0 0 1 66.114 24.316 L 66.212 24.316 A 9.349 9.349 0 0 0 71.451 26.067 A 11.54 11.54 0 0 0 71.876 26.074 L 72.462 26.074 Q 77.515 26.074 80.177 22.461 Q 80.423 21.824 80.462 21.291 A 2.697 2.697 0 0 0 80.47 21.094 A 2.01 2.01 0 0 0 80.466 20.989 Q 80.451 20.714 80.372 20.02 Z M 254.224 2.832 L 254.322 2.832 A 3.428 3.428 0 0 1 255.215 3.649 Q 255.76 4.38 255.786 5.371 A 3.802 3.802 0 0 1 255.787 5.469 L 255.787 5.566 Q 255.787 7.666 253.638 8.301 Q 253.272 8.398 252.857 8.398 L 252.662 8.398 L 248.463 7.617 L 248.365 7.617 A 4.316 4.316 0 0 0 247.745 7.693 Q 247.032 7.838 246.766 8.232 A 0.971 0.971 0 0 0 246.607 8.789 L 246.412 8.887 A 4.895 4.895 0 0 1 245.955 8.609 Q 245.51 8.3 245.342 7.991 A 0.777 0.777 0 0 1 245.24 7.617 Q 245.522 6.566 246.525 6.323 A 2.842 2.842 0 0 1 247.193 6.25 Q 250.929 7.129 251.588 7.129 A 5.263 5.263 0 0 0 252.76 6.857 Q 254.331 6.275 254.498 4.688 A 3.746 3.746 0 0 0 254.517 4.297 L 254.517 4.004 Q 254.517 3.786 254.228 2.844 A 31.291 31.291 0 0 0 254.224 2.832 Z M 5.372 2.148 L 5.47 2.148 Q 6.367 2.148 8.087 7.403 A 84.174 84.174 0 0 1 8.497 8.691 A 37.243 37.243 0 0 1 8.918 9.741 Q 9.596 11.499 10.548 14.356 A 7.476 7.476 0 0 1 10.494 14.693 Q 10.359 15.43 10.157 15.43 A 2411.204 2411.204 0 0 1 9.142 12.675 Q 5.901 3.856 5.4 2.242 A 9.402 9.402 0 0 1 5.372 2.148 Z M 139.967 16.113 L 139.967 16.406 A 5.823 5.823 0 0 0 140.127 17.826 A 3.377 3.377 0 0 0 142.115 20.215 A 0.918 0.918 0 0 0 142.282 20.295 Q 142.571 20.404 143.157 20.49 A 11.537 11.537 0 0 0 143.287 20.508 A 2.806 2.806 0 0 0 145.834 19.112 Q 146.395 18.202 146.607 16.699 L 146.607 15.918 A 4.967 4.967 0 0 0 146.404 14.44 Q 145.915 12.87 144.253 12.277 A 5.295 5.295 0 0 0 143.678 12.109 L 142.896 12.109 Q 140.675 12.591 140.138 14.644 A 5.812 5.812 0 0 0 139.967 16.113 Z M 191.822 16.113 L 191.822 16.406 A 5.823 5.823 0 0 0 191.983 17.826 A 3.377 3.377 0 0 0 193.971 20.215 A 0.918 0.918 0 0 0 194.138 20.295 Q 194.427 20.404 195.013 20.49 A 11.537 11.537 0 0 0 195.142 20.508 A 2.806 2.806 0 0 0 197.689 19.112 Q 198.251 18.202 198.463 16.699 L 198.463 15.918 A 4.967 4.967 0 0 0 198.259 14.44 Q 197.77 12.87 196.108 12.277 A 5.295 5.295 0 0 0 195.533 12.109 L 194.752 12.109 Q 192.53 12.591 191.993 14.644 A 5.812 5.812 0 0 0 191.822 16.113 Z M 107.471 1.172 L 107.569 1.172 A 5.145 5.145 0 0 1 108.48 2.068 A 3.397 3.397 0 0 1 109.229 4.199 L 109.229 4.395 A 3.365 3.365 0 0 1 108.708 6.27 Q 108.295 6.906 107.555 7.371 A 5.734 5.734 0 0 1 106.69 7.813 L 106.593 7.813 A 3.153 3.153 0 0 0 106.017 7.262 A 2.133 2.133 0 0 0 104.737 6.836 L 103.858 6.836 Q 103.632 6.836 103.07 7.004 A 11.43 11.43 0 0 0 102.979 7.031 A 15.625 15.625 0 0 1 102.865 6.892 Q 102.569 6.529 102.507 6.4 A 0.136 0.136 0 0 1 102.491 6.348 L 102.589 6.348 A 14.569 14.569 0 0 0 102.945 6.462 Q 103.433 6.611 103.673 6.636 A 0.851 0.851 0 0 0 103.761 6.641 L 104.835 6.641 A 2.595 2.595 0 0 0 106.883 5.649 Q 107.231 5.24 107.517 4.662 A 7.285 7.285 0 0 0 107.764 4.102 A 0.38 0.38 0 0 0 107.804 4.011 Q 107.876 3.786 107.948 3.133 A 19.76 19.76 0 0 0 107.96 3.027 A 2.749 2.749 0 0 0 107.912 2.542 Q 107.807 1.961 107.471 1.172 Z M 179.957 1.172 L 180.054 1.172 A 5.145 5.145 0 0 1 180.965 2.068 A 3.397 3.397 0 0 1 181.715 4.199 L 181.715 4.395 A 3.365 3.365 0 0 1 181.193 6.27 Q 180.78 6.906 180.04 7.371 A 5.734 5.734 0 0 1 179.176 7.813 L 179.078 7.813 A 3.153 3.153 0 0 0 178.502 7.262 A 2.133 2.133 0 0 0 177.222 6.836 L 176.344 6.836 Q 176.117 6.836 175.556 7.004 A 11.43 11.43 0 0 0 175.465 7.031 A 15.625 15.625 0 0 1 175.35 6.892 Q 175.055 6.529 174.993 6.4 A 0.136 0.136 0 0 1 174.976 6.348 L 175.074 6.348 A 14.569 14.569 0 0 0 175.431 6.462 Q 175.918 6.611 176.159 6.636 A 0.851 0.851 0 0 0 176.246 6.641 L 177.32 6.641 A 2.595 2.595 0 0 0 179.369 5.649 Q 179.716 5.24 180.002 4.662 A 7.285 7.285 0 0 0 180.25 4.102 A 0.38 0.38 0 0 0 180.289 4.011 Q 180.361 3.786 180.434 3.133 A 19.76 19.76 0 0 0 180.445 3.027 A 2.749 2.749 0 0 0 180.397 2.542 Q 180.293 1.961 179.957 1.172 Z M 143.189 12.695 L 143.385 12.695 A 2.164 2.164 0 0 1 144.93 13.344 A 3.573 3.573 0 0 1 145.435 13.965 L 145.435 14.16 L 144.556 13.965 A 2.214 2.214 0 0 0 142.52 15.1 Q 142.261 15.537 142.103 16.143 A 7.161 7.161 0 0 0 141.92 17.188 L 141.92 17.773 A 101.382 101.382 0 0 1 141.986 18.289 Q 142.115 19.313 142.115 19.531 A 3.267 3.267 0 0 1 140.638 17.283 A 5.241 5.241 0 0 1 140.553 16.309 A 8.84 8.84 0 0 1 140.786 14.995 Q 140.956 14.358 141.216 13.897 A 2.149 2.149 0 0 1 143.189 12.695 Z M 195.045 12.695 L 195.24 12.695 A 2.164 2.164 0 0 1 196.786 13.344 A 3.573 3.573 0 0 1 197.291 13.965 L 197.291 14.16 L 196.412 13.965 A 2.214 2.214 0 0 0 194.376 15.1 Q 194.116 15.537 193.959 16.143 A 7.161 7.161 0 0 0 193.775 17.188 L 193.775 17.773 A 101.382 101.382 0 0 1 193.842 18.289 Q 193.971 19.313 193.971 19.531 A 3.267 3.267 0 0 1 192.494 17.283 A 5.241 5.241 0 0 1 192.408 16.309 A 8.84 8.84 0 0 1 192.642 14.995 Q 192.811 14.358 193.071 13.897 A 2.149 2.149 0 0 1 195.045 12.695 Z M 103.565 0.098 L 104.151 0 L 104.444 0 A 2.551 2.551 0 0 1 106.538 1.07 Q 106.856 1.48 107.112 2.046 A 6.976 6.976 0 0 1 107.276 2.441 L 107.276 3.418 Q 107.276 4.949 105.472 5.775 A 6.36 6.36 0 0 1 105.03 5.957 A 0.262 0.262 0 0 1 104.95 5.997 Q 104.779 6.055 104.346 6.055 L 104.249 6.055 A 5.422 5.422 0 0 1 103.076 5.766 Q 101.465 5.15 101.331 3.525 A 3.688 3.688 0 0 1 101.319 3.223 L 101.319 2.93 A 2.647 2.647 0 0 1 102.43 0.704 Q 102.854 0.384 103.442 0.146 A 6.067 6.067 0 0 1 103.565 0.098 Z M 176.051 0.098 L 176.637 0 L 176.929 0 A 2.551 2.551 0 0 1 179.023 1.07 Q 179.342 1.48 179.598 2.046 A 6.976 6.976 0 0 1 179.762 2.441 L 179.762 3.418 Q 179.762 4.949 177.958 5.775 A 6.36 6.36 0 0 1 177.515 5.957 A 0.262 0.262 0 0 1 177.436 5.997 Q 177.264 6.055 176.832 6.055 L 176.734 6.055 A 5.422 5.422 0 0 1 175.561 5.766 Q 173.95 5.15 173.817 3.525 A 3.688 3.688 0 0 1 173.804 3.223 L 173.804 2.93 A 2.647 2.647 0 0 1 174.915 0.704 Q 175.34 0.384 175.927 0.146 A 6.067 6.067 0 0 1 176.051 0.098 Z M 240.846 13.672 L 240.846 13.574 L 240.943 13.574 A 11.779 11.779 0 0 0 242.042 14.166 Q 243.983 15.1 247.681 16.309 A 6.286 6.286 0 0 1 248.088 16.56 Q 248.739 17.001 248.853 17.383 L 248.853 17.481 Q 248.776 17.481 248.76 17.542 A 0.144 0.144 0 0 0 248.756 17.578 Q 241.654 15.211 240.862 13.704 A 1.081 1.081 0 0 1 240.846 13.672 Z M 30.177 14.063 L 30.372 14.16 L 36.817 14.16 A 0.281 0.281 0 0 0 36.894 14.151 Q 36.981 14.126 37.004 14.037 A 0.288 0.288 0 0 0 37.012 13.965 Q 36.34 11.363 34.018 11.152 A 4.671 4.671 0 0 0 33.595 11.133 A 3.162 3.162 0 0 0 30.96 12.459 Q 30.584 12.952 30.293 13.628 A 7.284 7.284 0 0 0 30.274 13.672 A 0.743 0.743 0 0 0 30.181 13.969 A 0.922 0.922 0 0 0 30.177 14.063 Z M 68.262 14.063 L 68.458 14.16 L 74.903 14.16 A 0.281 0.281 0 0 0 74.98 14.151 Q 75.067 14.126 75.09 14.037 A 0.288 0.288 0 0 0 75.098 13.965 Q 74.425 11.363 72.104 11.152 A 4.671 4.671 0 0 0 71.68 11.133 A 3.162 3.162 0 0 0 69.046 12.459 Q 68.67 12.952 68.379 13.628 A 7.284 7.284 0 0 0 68.36 13.672 A 0.743 0.743 0 0 0 68.267 13.969 A 0.922 0.922 0 0 0 68.262 14.063 Z M 33.595 11.816 L 33.985 11.816 Q 35.181 11.816 36.134 13.281 L 36.036 13.281 A 9.679 9.679 0 0 0 35.76 13.2 Q 35.344 13.086 35.157 13.086 L 34.864 13.086 A 3.172 3.172 0 0 0 34.213 13.149 Q 33.798 13.236 33.48 13.443 A 1.866 1.866 0 0 0 33.302 13.574 L 31.055 13.574 L 31.055 13.379 A 3.88 3.88 0 0 1 31.713 12.555 A 2.664 2.664 0 0 1 33.595 11.816 Z M 71.68 11.816 L 72.071 11.816 Q 73.267 11.816 74.22 13.281 L 74.122 13.281 A 9.679 9.679 0 0 0 73.846 13.2 Q 73.43 13.086 73.243 13.086 L 72.95 13.086 A 3.172 3.172 0 0 0 72.299 13.149 Q 71.884 13.236 71.566 13.443 A 1.866 1.866 0 0 0 71.387 13.574 L 69.141 13.574 L 69.141 13.379 A 3.88 3.88 0 0 1 69.798 12.555 A 2.664 2.664 0 0 1 71.68 11.816 Z M 56.69 6.543 L 56.69 7.227 L 56.593 7.422 A 7.269 7.269 0 0 1 56.224 7.383 Q 55.445 7.277 55.421 7.046 A 0.144 0.144 0 0 1 55.421 7.031 L 55.421 5.469 A 7.284 7.284 0 0 0 55.313 4.26 Q 55.215 3.674 55.025 3.033 A 12.966 12.966 0 0 0 54.932 2.734 A 2.942 2.942 0 0 1 56.354 4.384 Q 56.564 4.939 56.643 5.644 A 8.099 8.099 0 0 1 56.69 6.543 Z M 47.315 12.793 L 47.511 12.793 A 16.137 16.137 0 0 1 47.904 12.882 Q 48.693 13.072 48.843 13.216 A 0.094 0.094 0 0 1 48.878 13.281 L 48.878 13.867 A 0.281 0.281 0 0 1 48.868 13.945 Q 48.843 14.031 48.755 14.054 A 0.288 0.288 0 0 1 48.682 14.063 A 3.151 3.151 0 0 1 47.691 13.323 A 2.996 2.996 0 0 1 47.315 12.793 Z" vector-effect="non-scaling-stroke"/></g></svg>